<svg width="60" height="60" viewBox="0 0 60 60" fill="none" xmlns="http://www.w3.org/2000/svg">
<g clip-path="url(#clip0_37_88)">
<path d="M42.5 25.0975C32.8525 25.0975 25 32.9475 25 42.5975C25 52.1925 32.8525 60 42.5 60C52.1475 60 60 52.15 60 42.5C60 32.905 52.1475 25.0975 42.5 25.0975ZM42.5 55C35.6075 55 30 49.435 30 42.5975C30 35.705 35.6075 30.0975 42.5 30.0975C49.3925 30.0975 55 35.6625 55 42.5C55 49.3925 49.3925 55 42.5 55ZM46.7675 43.2325C47.745 44.21 47.745 45.79 46.7675 46.7675C46.28 47.255 45.64 47.5 45 47.5C44.36 47.5 43.72 47.255 43.2325 46.7675L40.7325 44.2675C40.2625 43.7975 40 43.1625 40 42.5V37.5C40 36.12 41.1175 35 42.5 35C43.8825 35 45 36.12 45 37.5V41.465L46.7675 43.2325ZM60 17.5V22.5C60 23.88 58.8825 25 57.5 25C56.1175 25 55 23.88 55 22.5V17.5C55 13.365 51.635 10 47.5 10H12.5C8.365 10 5 13.365 5 17.5V20H27.5C28.88 20 30 21.12 30 22.5C30 23.88 28.88 25 27.5 25H5V47.5C5 51.635 8.365 55 12.5 55H22.5C23.88 55 25 56.12 25 57.5C25 58.88 23.88 60 22.5 60H12.5C5.6075 60 0 54.3925 0 47.5V17.5C0 10.6075 5.6075 5 12.5 5H15V2.5C15 1.12 16.12 0 17.5 0C18.88 0 20 1.12 20 2.5V5H40V2.5C40 1.12 41.1175 0 42.5 0C43.8825 0 45 1.12 45 2.5V5H47.5C54.3925 5 60 10.6075 60 17.5Z" fill="#3B82F6"/>
</g>
<defs>
<clipPath id="clip0_37_88">
<rect width="60" height="60" fill="white"/>
</clipPath>
</defs>
</svg>
