<svg width="60" height="60" viewBox="0 0 60 60" fill="none" xmlns="http://www.w3.org/2000/svg">
<g clip-path="url(#clip0_37_78)">
<path d="M30 12.5C31.3825 12.5 32.5 13.6175 32.5 15V29.69C32.5 30.5625 32.0475 31.3675 31.3025 31.825L20.2825 38.565C19.8775 38.815 19.425 38.93 18.98 38.93C18.1375 38.93 17.3175 38.505 16.845 37.7325C16.125 36.555 16.495 35.0175 17.675 34.295L27.5 28.2875V15C27.5 13.6175 28.6175 12.5 30 12.5ZM55 32.5H45C43.6175 32.5 42.5 33.6175 42.5 35C42.5 36.3825 43.6175 37.5 45 37.5H51.42L40.5975 48.32C40.115 48.8025 39.2625 48.805 38.775 48.32L36.015 45.56C33.6375 43.1775 29.495 43.1775 27.11 45.56L16.9775 55.735C16.0025 56.715 16.0075 58.2975 16.985 59.2725C17.4725 59.7575 18.1125 60 18.75 60C19.3925 60 20.035 59.7525 20.5225 59.265L30.6525 49.09C31.135 48.6075 31.9875 48.605 32.475 49.09L35.235 51.85C37.6125 54.2325 41.76 54.23 44.135 51.85L55 40.9875V47.4975C55 48.88 56.1175 49.9975 57.5 49.9975C58.8825 49.9975 60 48.88 60 47.4975V37.4975C60 34.74 57.7575 32.4975 55 32.4975V32.5ZM5 30C5 16.215 16.215 5 30 5C42.07 5 52.41 13.6 54.5875 25.4525C54.84 26.81 56.1275 27.725 57.4975 27.46C58.855 27.21 59.7525 25.9075 59.505 24.55C56.8925 10.325 44.4825 0 30 0C13.4575 0 0 13.4575 0 30C0 38.29 3.48 46.29 9.545 51.945C10.025 52.395 10.64 52.6175 11.25 52.6175C11.92 52.6175 12.585 52.3525 13.0775 51.8225C14.02 50.815 13.9625 49.2325 12.9525 48.29C7.9 43.575 4.9975 36.91 4.9975 30.0025L5 30Z" fill="#3B82F6"/>
</g>
<defs>
<clipPath id="clip0_37_78">
<rect width="60" height="60" fill="white"/>
</clipPath>
</defs>
</svg>
