<svg width="60" height="60" viewBox="0 0 60 60" fill="none" xmlns="http://www.w3.org/2000/svg">
<path d="M35 25C35 27.5475 34.23 29.91 32.92 31.885L25.7325 24.6975C25.2625 24.2275 25 23.5925 25 22.93V12.7525C30.705 13.91 35 18.9525 35 25ZM20 23.965V12.7525C13.625 14.0475 9.01 20.1925 10.1825 27.17C10.995 32.005 14.7325 36.0275 19.505 37.15C23.18 38.0125 26.655 37.2325 29.385 35.4225L21.4625 27.5C20.525 26.5625 20 25.29 20 23.965ZM47.5 12.5H42.5C41.1175 12.5 40 13.62 40 15C40 16.38 41.1175 17.5 42.5 17.5H47.5C48.8825 17.5 50 16.38 50 15C50 13.62 48.8825 12.5 47.5 12.5ZM47.5 22.5H42.5C41.1175 22.5 40 23.62 40 25C40 26.38 41.1175 27.5 42.5 27.5H47.5C48.8825 27.5 50 26.38 50 25C50 23.62 48.8825 22.5 47.5 22.5ZM47.5 32.5H42.5C41.1175 32.5 40 33.62 40 35C40 36.38 41.1175 37.5 42.5 37.5H47.5C48.8825 37.5 50 36.38 50 35C50 33.62 48.8825 32.5 47.5 32.5ZM60 15V35C60 41.8925 54.3925 47.5 47.5 47.5H32.5V52.5H42.5C43.8825 52.5 45 53.62 45 55C45 56.38 43.8825 57.5 42.5 57.5H17.5C16.1175 57.5 15 56.38 15 55C15 53.62 16.1175 52.5 17.5 52.5H27.5V47.5H12.5C5.6075 47.5 0 41.8925 0 35V15C0 8.1075 5.6075 2.5 12.5 2.5H47.5C54.3925 2.5 60 8.1075 60 15ZM55 15C55 10.865 51.635 7.5 47.5 7.5H12.5C8.365 7.5 5 10.865 5 15V35C5 39.135 8.365 42.5 12.5 42.5H47.5C51.635 42.5 55 39.135 55 35V15Z" fill="#3B82F6"/>
</svg>
