<svg width="60" height="60" viewBox="0 0 60 60" fill="none" xmlns="http://www.w3.org/2000/svg">
<g clip-path="url(#clip0_37_83)">
<path d="M37.76 13.2775C39.2225 11.815 39.2225 9.4375 37.76 7.97501L32.6525 2.8675C31.19 1.405 28.8125 1.405 27.35 2.8675L22.2425 7.97501C20.78 9.4375 20.78 11.815 22.2425 13.2775C22.2425 13.2775 27.45 18.4825 27.5025 18.5275V23.49C23.8925 24.5675 21.2525 27.92 21.2525 31.875C21.2525 35.83 23.8925 39.1825 27.5025 40.26V45C24.745 45 22.5025 47.2425 22.5025 50V55C22.5025 57.7575 24.745 60 27.5025 60H32.5025C35.26 60 37.5025 57.7575 37.5025 55V50C37.5025 47.2425 35.26 45 32.5025 45V40.26C36.1125 39.1825 38.7525 35.83 38.7525 31.875C38.7525 27.92 36.1125 24.5675 32.5025 23.49V18.5275C32.555 18.4825 37.76 13.2775 37.76 13.2775ZM32.5 55H27.5V50H32.5V55ZM26.66 10.625L30 7.285L33.34 10.625L30 13.965L26.66 10.625ZM33.75 31.875C33.75 33.9425 32.0675 35.625 30 35.625C27.9325 35.625 26.25 33.9425 26.25 31.875C26.25 29.8075 27.9325 28.125 30 28.125C32.0675 28.125 33.75 29.8075 33.75 31.875ZM60 16.25V23.75C60 28.575 56.075 32.5 51.25 32.5H47.5L49.4825 34.4825C50.46 35.46 50.46 37.04 49.4825 38.0175C48.995 38.505 48.355 38.75 47.715 38.75C47.075 38.75 46.435 38.505 45.9475 38.0175L41.465 33.535C39.515 31.585 39.515 28.415 41.465 26.465L45.9475 21.9825C46.925 21.005 48.505 21.005 49.4825 21.9825C50.46 22.96 50.46 24.54 49.4825 25.5175L47.5 27.5H51.25C53.3175 27.5 55 25.8175 55 23.75V16.25C55 14.1825 53.3175 12.5 51.25 12.5H45C43.62 12.5 42.5 11.38 42.5 10C42.5 8.62 43.62 7.5 45 7.5H51.25C56.075 7.5 60 11.425 60 16.25ZM18.535 46.465C20.485 48.4125 20.485 51.5875 18.535 53.535L14.0525 58.0175C13.565 58.505 12.925 58.75 12.285 58.75C11.645 58.75 11.005 58.505 10.5175 58.0175C9.54 57.04 9.54 55.46 10.5175 54.4825L12.5 52.5H8.75C3.925 52.5 0 48.575 0 43.75V36.25C0 31.425 3.925 27.5 8.75 27.5H15C16.38 27.5 17.5 28.62 17.5 30C17.5 31.38 16.38 32.5 15 32.5H8.75C6.6825 32.5 5 34.1825 5 36.25V43.75C5 45.8175 6.6825 47.5 8.75 47.5H12.5L10.5175 45.5175C9.54 44.54 9.54 42.96 10.5175 41.9825C11.495 41.005 13.075 41.005 14.0525 41.9825L18.535 46.465Z" fill="#3B82F6"/>
</g>
<defs>
<clipPath id="clip0_37_83">
<rect width="60" height="60" fill="white"/>
</clipPath>
</defs>
</svg>
